<?xml version="1.0" encoding="utf-8"?>
<!-- Generator: Adobe Illustrator 26.0.0, SVG Export Plug-In . SVG Version: 6.00 Build 0)  -->
<svg version="1.1" id="Camada_1" xmlns="http://www.w3.org/2000/svg" xmlns:xlink="http://www.w3.org/1999/xlink" x="0px" y="0px"
	 viewBox="0 0 619.6 576.6" style="enable-background:new 0 0 619.6 576.6;" xml:space="preserve">
<style type="text/css">
	.st0{fill:#F2F2F2;}
	.st1{fill:#FFFFFF;}
	.st2{fill:#CCCCCC;}
	.st3{fill:#E6E6E6;}
	.st4{fill:#4D84E2;}
	.st5{fill:#A0616A;}
	.st6{fill:#3F3D56;}
	.st7{fill:#2F2E41;}
</style>
<path class="st0" d="M163.3,535.4l0.7-15.9c7.4-3.9,15.6-6,24-6.1c-11.5,9.4-10.1,27.5-17.9,40.2c-5,8-13.3,13.2-22.7,14.3l-9.6,5.9
	c-2.7-14.9,1.3-30.2,10.9-41.9c2.7-3.2,5.8-6.1,9.2-8.5C160.2,529.4,163.3,535.4,163.3,535.4z"/>
<path class="st0" d="M561.2,303.7c26-19.8,38.4-53,30.6-84.7c-0.2-0.8-0.4-1.6-0.6-2.4c-5.1-18.8-17.9-36.7-36.4-42.7
	c-15.6-5-32.6-1.2-48.8-3.2c-31.9-3.9-56.6-29.8-74-56.8c-17.4-27-30.8-57.3-53.9-79.6C339.9-2.4,277.7-10.3,230.4,13.7
	c-47.3,24-77.4,77.1-76.1,130.1c1.3,53,32.7,103.6,78.4,130.5c16.8,9.9,36.2,16.9,55.5,14.4c16.8-2.1,32-11.1,48.7-13.8
	c26.2-4.2,52.3,7.7,74.9,21.5c22.7,13.8,44.6,30.2,70.4,36.6C507.2,339.1,538.2,321.2,561.2,303.7z"/>
<path class="st1" d="M355.8,67.2H97.3c-11.2,0-20.3,9.1-20.3,20.3v128.7c0,11.2,9.1,20.3,20.3,20.3h258.6c11.2,0,20.3-9.1,20.3-20.3
	V87.5C376.2,76.3,367.1,67.2,355.8,67.2z"/>
<path class="st2" d="M355.8,237.5H97.3c-11.8,0-21.3-9.6-21.3-21.3V87.5c0-11.8,9.6-21.3,21.3-21.3h258.6c11.8,0,21.3,9.6,21.3,21.3
	v128.7C377.2,228,367.6,237.5,355.8,237.5z M97.3,68.2c-10.7,0-19.3,8.7-19.3,19.3v128.7c0,10.7,8.7,19.3,19.3,19.3h258.6
	c10.7,0,19.3-8.7,19.3-19.3V87.5c0-10.7-8.7-19.3-19.3-19.3H97.3z"/>
<path class="st3" d="M367.7,273.1H119.9c-4.5,0-8.1-3.6-8.1-8.1s3.6-8.1,8.1-8.1h247.8c4.5,0,8.1,3.6,8.1,8.1
	S372.2,273.1,367.7,273.1z"/>
<path class="st0" d="M199.4,196.1c-1.5,0-2.9-0.4-4.2-1.1c-2.8-1.5-4.5-4.4-4.5-7.6v-71.8c0-4.8,3.9-8.7,8.7-8.7
	c1.7,0,3.3,0.5,4.7,1.4l68.1,35.9c4.1,2.6,5.3,7.9,2.7,12c-0.7,1.1-1.6,2-2.7,2.7L204,194.7C202.6,195.6,201,196.1,199.4,196.1z"/>
<path class="st1" d="M599.5,160.3H491.4c-4.7,0-8.5-3.8-8.5-8.5V98c0-4.7,3.8-8.5,8.5-8.5h108.1c4.7,0,8.5,3.8,8.5,8.5v53.8
	C608,156.5,604.2,160.3,599.5,160.3z"/>
<path class="st2" d="M599.5,161.3H491.4c-5.2,0-9.5-4.3-9.5-9.5V98c0-5.2,4.3-9.5,9.5-9.5h108.1c5.2,0,9.5,4.3,9.5,9.5v53.8
	C609,157,604.7,161.3,599.5,161.3z M491.4,90.5c-4.1,0-7.5,3.4-7.5,7.5v53.8c0,4.1,3.4,7.5,7.5,7.5h108.1c4.1,0,7.5-3.4,7.5-7.5V98
	c0-4.1-3.4-7.5-7.5-7.5H491.4z"/>
<path class="st3" d="M581.7,186.6h-72.8c-4.5,0-8.1-3.6-8.1-8.1c0-4.5,3.6-8.1,8.1-8.1h72.8c4.5,0,8.1,3.6,8.1,8.1
	S586.2,186.6,581.7,186.6z"/>
<path class="st4" d="M533.8,144.1c-0.6,0-1.2-0.2-1.8-0.5c-1.2-0.6-1.9-1.9-1.9-3.2v-30c0-2,1.6-3.6,3.6-3.6c0.7,0,1.4,0.2,1.9,0.6
	l28.5,15c1.7,1.1,2.2,3.3,1.1,5c-0.3,0.5-0.7,0.8-1.1,1.1l-28.5,15C535.2,143.9,534.5,144.1,533.8,144.1z"/>
<path class="st1" d="M530.5,391.7H422.4c-4.7,0-8.5-3.8-8.5-8.5v-53.8c0-4.7,3.8-8.5,8.5-8.5h108.1c4.7,0,8.5,3.8,8.5,8.5v53.8
	C539,387.9,535.2,391.7,530.5,391.7z"/>
<path class="st2" d="M530.5,392.7H422.4c-5.2,0-9.5-4.3-9.5-9.5v-53.8c0-5.2,4.3-9.5,9.5-9.5h108.1c5.2,0,9.5,4.3,9.5,9.5v53.8
	C540,388.4,535.7,392.7,530.5,392.7z M422.4,321.9c-4.1,0-7.5,3.4-7.5,7.5v53.8c0,4.1,3.4,7.5,7.5,7.5h108.1c4.1,0,7.5-3.4,7.5-7.5
	v-53.8c0-4.1-3.4-7.5-7.5-7.5H422.4z"/>
<path class="st3" d="M512.7,418.1h-72.8c-4.5,0-8.1-3.6-8.1-8.1c0-4.5,3.6-8.1,8.1-8.1h72.8c4.5,0,8.1,3.6,8.1,8.1
	S517.2,418.1,512.7,418.1L512.7,418.1z"/>
<path class="st4" d="M464.6,377.1c-0.6,0-1.2-0.2-1.8-0.5c-1.2-0.6-1.9-1.9-1.9-3.2v-30c0-2,1.6-3.6,3.6-3.6c0.7,0,1.4,0.2,1.9,0.6
	l28.5,15c1.7,1.1,2.2,3.3,1.1,5c-0.3,0.5-0.7,0.8-1.1,1.1l-28.5,15C465.9,376.9,465.3,377.1,464.6,377.1z"/>
<path class="st5" d="M163.6,205.6l-55.3,0.4c0,0-31.5-10.2-45.8-8L57,219.4l39.2,13l68.3-9.9c4.8,2.4,10.7,0.5,13.1-4.3
	c2.4-4.8,0.5-10.7-4.3-13.1C170.2,203.5,166.5,203.7,163.6,205.6L163.6,205.6z"/>
<path class="st6" d="M95.8,234.5l-65.6-18.9l-6-22.3c-3.2-6.1-2.6-13.4,1.4-18.9l0,0c5.6-7.6,10-0.1,17.9,5
	c13.9,1,48.7,12.9,62.8,26.7l-1.1,8.5L95.8,234.5z"/>
<path class="st4" d="M152.9,216.3c-1.5,0-2.9-0.4-4.2-1.1c-2.8-1.5-4.5-4.4-4.5-7.6v-71.8c0-4.8,3.9-8.7,8.7-8.7
	c1.7,0,3.3,0.5,4.7,1.4l68.1,35.9c4.1,2.6,5.3,7.9,2.7,12c-0.7,1.1-1.6,2-2.7,2.7l-68.1,35.9C156.1,215.8,154.5,216.3,152.9,216.3z"
	/>
<polygon class="st5" points="107.1,562.2 121.1,562.2 127.7,508.4 107.1,508.4 "/>
<path class="st7" d="M103.6,557.7l3.9,0l15.3-6.2l8.2,6.2h0c9.7,0,17.5,7.8,17.5,17.5v0.6l-45,0L103.6,557.7z"/>
<polygon class="st5" points="7.7,549.1 20.9,553.6 44.5,504.7 25,498.1 "/>
<path class="st7" d="M5.8,543.6l3.7,1.3l16.5-1l5.8,8.5l0,0c9.2,3.1,14.1,13,11,22.2l-0.2,0.5L0,560.8L5.8,543.6z"/>
<path class="st7" d="M23.9,330.3c0,0-1.6,19.6,2.4,38.3s12.8,81,12.8,81c-17.8,29.2-28.1,57.9-30,87l25,2L70,453.7l3.6-85l26.1,57.9
	l-1.3,4.5c-0.7,2.2,0.2,4.5,2.2,5.7l0,0c0,0-2.4,15.9-0.8,15.9s5.7,2.4,5.7,2.4c-10.2,31.6-11.5,61.9-2.2,90.6l22-1L139.6,420
	L129,352.3l-0.8-13l-3.7,0.2l-1.9-5.4l-3.4-9.4L23.9,330.3z"/>
<path class="st6" d="M22.5,334.4l-0.1-0.2c-7.8-10.9,3.9-37,5.7-40.7l-7.4-2.4l-6.5-54.8l-4.7-18.9c-3.6-14.6,0.9-30,11.8-40.3
	l11-10.3L45.5,147h21.5l7.4,13.9c14.7,3.4,24.9,16.9,24.2,32l-1.7,36.5l6.5,45.4l0,8.2l11.3,18.6l2.5,11.5c1,1.3,7.8,10.3,7.8,12.8
	c0,0.4-0.3,0.7-0.9,1.1c-4.6,3.1-30,9.5-41.3,5c-12-4.8-59.6,2.4-60.1,2.5L22.5,334.4z"/>
<path class="st2" d="M241.8,575.4c0,0.7-0.5,1.2-1,1.2c0,0,0,0,0,0H1c-0.6,0-1-0.5-1-1.2s0.5-1.2,1-1.2h239.8
	C241.3,574.2,241.8,574.7,241.8,575.4L241.8,575.4z"/>
<circle class="st5" cx="59" cy="112.2" r="28.4"/>
<path class="st5" d="M164.5,134l-43.9,33.7c0,0-31.2,10.9-41.4,21.2l8.6,20.4L127,196l48.5-49.1c5.3-1,8.8-6.1,7.9-11.4
	c-1-5.3-6.1-8.8-11.4-7.9C168.5,128.3,165.7,130.7,164.5,134z"/>
<path class="st6" d="M127.9,197.9L67,215.8l-21-7.4c-6.2-2.9-10.2-9.1-10.3-15.9l0,0c-0.1-9.4,7.9-6.1,17.3-6.8
	c11.7-7.6,46.6-19.1,66.2-16.7l4.2,7.4L127.9,197.9z"/>
<path class="st7" d="M78.5,79.3c-2-0.1-1.3-3.9-3-5.1c0,0,0,0.1,0,0.1c-0.6,2.1-2.7,3.4-4.9,2.9c-1.3-0.3-2.3-1.3-2.8-2.5
	c-0.6-1.9-2-3.4-3.9-4.1c-0.1,3.6-2.8,6.7-6,8.2s-6.9,1.8-10.4,1.8c-3.6,0.1-7.2-0.1-10.6,0.8c-3.5,0.9-6.8,2.9-8.3,6.2
	c-1.5,3.2-0.4,7.7,2.8,9.2c-2.5,0-4.6,2.1-5.5,4.4c-0.7,2.4-0.9,4.9-0.5,7.4c0.7,9.2,2.4,19.1,9.1,25.4c5.1,4.8,12.4,6.8,19.4,6.8
	c7,0,5.8-0.7,12.6-2.5c0,0,6.5-18.5,4.8-20.3c-1.6-1.8-3-4.2-2.7-6.6s2.9-4.6,5.2-3.7c-0.4-1-0.7-1.2-0.8-1.1
	c0.1-0.3,0.2-0.6,0.3-0.8c0.9-3,3.1-5.3,6-6.4c3-1,6.2,0,8.2,2.5C94.9,94.9,90.2,79.7,78.5,79.3z"/>
<path class="st2" d="M318.2,67.2v27.2c0,1.4-2.4,2.5-5.5,2.8c0,0-0.1,0-0.1,0c-0.5,0-1.1,0.1-1.7,0.1c-1.8,0-3.5-0.3-5.2-0.8
	c-0.2-0.1-0.3-0.1-0.5-0.2c-0.1-0.1-0.3-0.1-0.4-0.2c-0.8-0.5-1.2-1-1.2-1.6V67.2L318.2,67.2z"/>
<circle class="st6" cx="539.2" cy="388.9" r="12.4"/>
<path class="st1" d="M538.3,393.9C538.3,393.9,538.3,393.9,538.3,393.9c-0.6,0-1-0.3-1.3-0.6l-2.1-2.7c-0.5-0.7-0.4-1.7,0.3-2.3
	c0,0,0,0,0,0l0.1-0.1c0.7-0.5,1.7-0.4,2.3,0.3c0,0,0,0,0,0c0.4,0.5,1.1,0.6,1.7,0.2c0,0,0.1-0.1,0.1-0.1l4.2-4.4
	c0.6-0.6,1.6-0.7,2.3-0.1l0.1,0.1c0.6,0.6,0.7,1.6,0.1,2.3c0,0,0,0,0,0l-6.5,6.9C539.2,393.7,538.8,393.9,538.3,393.9z"/>
<circle class="st6" cx="607.2" cy="158.9" r="12.4"/>
<path class="st1" d="M606.3,163.9C606.3,163.9,606.3,163.9,606.3,163.9c-0.6,0-1-0.3-1.3-0.6l-2.1-2.7c-0.5-0.7-0.4-1.7,0.3-2.3
	c0,0,0,0,0,0l0.1-0.1c0.7-0.5,1.7-0.4,2.3,0.3c0,0,0,0,0,0c0.4,0.5,1.1,0.6,1.7,0.2c0,0,0.1-0.1,0.1-0.1l4.2-4.4
	c0.6-0.6,1.6-0.7,2.3-0.1l0.1,0.1c0.6,0.6,0.7,1.6,0.1,2.3c0,0,0,0,0,0l-6.5,6.9C607.2,163.7,606.8,163.9,606.3,163.9z"/>
</svg>
